<?xml version="1.0" encoding="UTF-8"?>
<svg xmlns="http://www.w3.org/2000/svg" xmlns:xlink="http://www.w3.org/1999/xlink" viewBox="0 0 2241 2241">
  <defs>
    <style>
      .cls-1 {
        fill: url(#_Áåçûìÿííûé_ãðàäèåíò_96);
      }

      .cls-1, .cls-2, .cls-3, .cls-4, .cls-5, .cls-6, .cls-7, .cls-8 {
        stroke-width: 0px;
      }

      .cls-9 {
        isolation: isolate;
      }

      .cls-3 {
        fill: url(#_Áåçûìÿííûé_ãðàäèåíò_262);
        mix-blend-mode: screen;
      }

      .cls-4 {
        fill: url(#_Áåçûìÿííûé_ãðàäèåíò_2);
      }

      .cls-5 {
        fill: url(#_Áåçûìÿííûé_ãðàäèåíò_106);
      }

      .cls-6 {
        fill: url(#_Áåçûìÿííûé_ãðàäèåíò_245);
      }

      .cls-7 {
        fill: url(#_Áåçûìÿííûé_ãðàäèåíò_174);
      }

      .cls-8 {
        fill: url(#_Áåçûìÿííûé_ãðàäèåíò_186);
      }
    </style>
    <radialGradient id="_Áåçûìÿííûé_ãðàäèåíò_106" data-name="Áåçûìÿííûé ãðàäèåíò 106" cx="1310.89" cy="1120.88" fx="1310.89" fy="1120.88" r="1062.25" gradientTransform="translate(-159.85 25.73) scale(.98)" gradientUnits="userSpaceOnUse">
      <stop offset="0" stop-color="#ccc"/>
      <stop offset=".7" stop-color="#fff"/>
      <stop offset=".81" stop-color="#fcfcfc"/>
      <stop offset=".88" stop-color="#f4f4f4"/>
      <stop offset=".94" stop-color="#e5e5e5"/>
      <stop offset=".99" stop-color="#d1d1d1"/>
      <stop offset="1" stop-color="#ccc"/>
    </radialGradient>
    <radialGradient id="_Áåçûìÿííûé_ãðàäèåíò_245" data-name="Áåçûìÿííûé ãðàäèåíò 245" cx="1322.87" cy="1130.7" fx="1322.87" fy="1130.7" r="1082.02" gradientTransform="translate(-159.85 25.73) scale(.98)" gradientUnits="userSpaceOnUse">
      <stop offset="0" stop-color="#ff9191"/>
      <stop offset=".13" stop-color="#fe8c8c"/>
      <stop offset=".27" stop-color="#fc8080"/>
      <stop offset=".4" stop-color="#f86b6b"/>
      <stop offset=".54" stop-color="#f44e4e"/>
      <stop offset=".68" stop-color="#ee2929"/>
      <stop offset=".8" stop-color="#e80404"/>
      <stop offset=".86" stop-color="#e80606"/>
      <stop offset=".89" stop-color="#ea0e0e"/>
      <stop offset=".92" stop-color="#ed1d1d"/>
      <stop offset=".95" stop-color="#f13131"/>
      <stop offset=".97" stop-color="#f64b4b"/>
      <stop offset="1" stop-color="#fd6b6b"/>
      <stop offset="1" stop-color="#ff7373"/>
    </radialGradient>
    <radialGradient id="_Áåçûìÿííûé_ãðàäèåíò_96" data-name="Áåçûìÿííûé ãðàäèåíò 96" cx="1287.55" cy="1135.81" fx="1287.55" fy="1135.81" r="1067.7" gradientTransform="translate(-159.85 25.73) scale(.98)" gradientUnits="userSpaceOnUse">
      <stop offset=".4" stop-color="#000"/>
      <stop offset="1" stop-color="#404040"/>
    </radialGradient>
    <radialGradient id="_Áåçûìÿííûé_ãðàäèåíò_174" data-name="Áåçûìÿííûé ãðàäèåíò 174" cx="1310.89" cy="1892.54" fx="1310.89" fy="1892.54" r="487.28" gradientTransform="translate(-159.85 25.73) scale(.98)" gradientUnits="userSpaceOnUse">
      <stop offset="0" stop-color="#474747"/>
      <stop offset=".87" stop-color="#2b2b2b"/>
      <stop offset=".89" stop-color="#383838"/>
      <stop offset=".93" stop-color="#434343"/>
      <stop offset=".98" stop-color="#474747"/>
    </radialGradient>
    <radialGradient id="_Áåçûìÿííûé_ãðàäèåíò_186" data-name="Áåçûìÿííûé ãðàäèåíò 186" cx="1311.82" cy="1558.51" fx="1311.82" fy="1558.51" r="152.84" gradientTransform="translate(-159.85 25.73) scale(.98)" gradientUnits="userSpaceOnUse">
      <stop offset=".9" stop-color="#666"/>
      <stop offset=".91" stop-color="#6a6a6a"/>
      <stop offset=".93" stop-color="#777"/>
      <stop offset=".95" stop-color="#8c8c8c"/>
      <stop offset=".97" stop-color="#aaa"/>
      <stop offset=".98" stop-color="#d0d0d0"/>
      <stop offset="1" stop-color="#fff"/>
    </radialGradient>
    <radialGradient id="_Áåçûìÿííûé_ãðàäèåíò_2" data-name="Áåçûìÿííûé ãðàäèåíò 2" cx="1309.79" cy="1561.48" fx="1309.79" fy="1561.48" r="151.09" gradientTransform="translate(-159.85 25.73) scale(.98)" gradientUnits="userSpaceOnUse">
      <stop offset=".7" stop-color="#fff"/>
      <stop offset=".79" stop-color="#fcfcfc"/>
      <stop offset=".85" stop-color="#f4f4f4"/>
      <stop offset=".89" stop-color="#e5e5e5"/>
      <stop offset=".93" stop-color="#d1d1d1"/>
      <stop offset=".97" stop-color="#b7b7b7"/>
      <stop offset="1" stop-color="#9d9d9d"/>
    </radialGradient>
    <linearGradient id="_Áåçûìÿííûé_ãðàäèåíò_262" data-name="Áåçûìÿííûé ãðàäèåíò 262" x1="1310.5" y1="1406.56" x2="1310.5" y2="1550.94" gradientTransform="translate(-190)" gradientUnits="userSpaceOnUse">
      <stop offset="0" stop-color="#fff"/>
      <stop offset="1" stop-color="#000"/>
    </linearGradient>
  </defs>
  <g class="cls-9">
    <g id="_">
      <g id="Red_ball" data-name="Red ball">
        <g>
          <circle class="cls-5" cx="1120.5" cy="1120.5" r="1037.5"/>
          <path class="cls-6" d="m1120.5,83c-573,0-1037.5,464.5-1037.5,1037.5,0,535.18,2075,535.18,2075,0,0-573-464.5-1037.5-1037.5-1037.5Z"/>
        </g>
        <g>
          <g>
            <path class="cls-1" d="m2153.39,1022.74c-.69,25.94-7.03,51.41-18.44,76.08-68.88,150.09-323.62,272.54-660,323.98-10.84,1.66-21.48-4.61-25.1-14.96-44.7-127.64-175.25-220.03-329.35-220.03s-284.65,92.39-329.35,220.03c-3.62,10.35-14.26,16.62-25.1,14.96-336.37-51.44-591.11-173.89-660-323.98-11.41-24.67-17.75-50.15-18.44-76.08-3.11,32.16-4.61,64.79-4.61,97.76,0,16.37.35,32.62,1.15,48.76,1.04,23.52,2.88,46.8,5.65,69.86,46.06,168.79,325.49,308.05,700.59,360.47,43.95,128.79,175.12,222.25,330.1,222.25s286.15-93.46,330.1-222.25c375.11-52.42,654.54-191.68,700.59-360.47,2.77-23.06,4.61-46.34,5.65-69.86.81-16.14,1.15-32.39,1.15-48.76,0-32.97-1.5-65.59-4.61-97.76Z"/>
            <path class="cls-7" d="m1449.8,1585.39c-12.13,1.63-22.75,9.41-27.34,20.75-47.89,118.33-153.61,192.65-301.96,192.65s-254.21-74.41-302.06-192.88c-4.53-11.22-15.01-18.96-26.99-20.69-406.26-58.6-646.64-195.81-702.64-355.99.36,3.29.6,6.62.99,9.9,45.5,166.75,318.75,304.67,687,358.53,8.34,1.22,15.22,6.93,18.3,14.78,48.06,122.12,175.6,209.42,325.39,209.42s277.33-87.3,325.39-209.42c3.09-7.84,9.96-13.56,18.3-14.78,368.25-53.85,641.5-191.78,687-358.53.39-3.28.63-6.61.99-9.9-55.96,160.08-306.33,302.88-702.39,356.17Z"/>
            <path class="cls-2" d="m87.61,1045.8c.69,25.94,7.03,39.89,18.44,64.56,68.88,150.08,323.6,284.05,659.95,335.5,10.87,1.66,21.53-4.64,25.17-15.01,44.72-127.61,175.26-219.97,329.33-219.97s284.58,92.34,329.31,219.92c3.65,10.4,14.34,16.72,25.24,15.05,336.32-51.45,591.02-185.42,659.9-335.49,11.41-24.67,17.75-38.62,18.44-64.56.21,2.15.95-13.29,0-23.06-.69,25.94-7.03,51.41-18.44,76.08-68.88,150.09-323.62,272.54-660,323.98-10.84,1.66-21.48-4.61-25.1-14.96-44.7-127.64-175.25-220.03-329.35-220.03s-284.65,92.39-329.35,220.03c-3.62,10.35-14.26,16.62-25.1,14.96-336.37-51.44-591.11-173.89-660-323.98-11.41-24.67-17.75-50.15-18.44-76.08-.95,9.77-.21,25.2,0,23.06Z"/>
          </g>
          <g>
            <ellipse class="cls-8" cx="1120.5" cy="1527.89" rx="195.97" ry="190.21"/>
            <ellipse class="cls-4" cx="1120.5" cy="1533.65" rx="146.98" ry="142.66"/>
            <path class="cls-3" d="m1120.5,1418.08c74.61,0,135.28,58.99,138.33,132.86.08-1.93.29-3.82.29-5.77,0-76.56-62.06-138.62-138.62-138.62s-138.62,62.06-138.62,138.62c0,1.95.21,3.84.29,5.77,3.04-73.86,63.72-132.86,138.33-132.86Z"/>
          </g>
        </g>
      </g>
    </g>
  </g>
</svg>